%TF.GenerationSoftware,Altium Limited,Altium Designer,24.2.2 (26)*%
G04 Layer_Color=65535*
%FSLAX45Y45*%
%MOMM*%
%TF.SameCoordinates,9421A899-AC1A-4384-8821-8213F9677E77*%
%TF.FilePolarity,Positive*%
%TF.FileFunction,Legend,Top*%
%TF.Part,Single*%
G01*
G75*
%TA.AperFunction,NonConductor*%
%ADD65C,0.20000*%
%ADD66C,0.10000*%
%ADD67C,0.25000*%
%ADD68C,0.17500*%
%ADD69C,0.15300*%
D65*
X8489430Y6227147D02*
G03*
X8489430Y6227147I-5000J0D01*
G01*
X9625000Y7012500D02*
G03*
X9645000Y7012500I10000J0D01*
G01*
D02*
G03*
X9625000Y7012500I-10000J0D01*
G01*
X9127500Y9725000D02*
G03*
X9147500Y9725000I10000J0D01*
G01*
D02*
G03*
X9127500Y9725000I-10000J0D01*
G01*
X6330000Y10027500D02*
G03*
X6320000Y10027500I-5000J0D01*
G01*
D02*
G03*
X6330000Y10027500I5000J0D01*
G01*
D02*
G03*
X6320000Y10027500I-5000J0D01*
G01*
X6317500Y8615000D02*
G03*
X6307500Y8615000I-5000J0D01*
G01*
D02*
G03*
X6317500Y8615000I5000J0D01*
G01*
D02*
G03*
X6307500Y8615000I-5000J0D01*
G01*
X10511400Y6595479D02*
G03*
X10511400Y6595479I-5000J0D01*
G01*
Y9694500D02*
G03*
X10511400Y9694500I-5000J0D01*
G01*
X7063687Y9078439D02*
G03*
X7063687Y9078439I-3400J0D01*
G01*
X6817500Y8597500D02*
Y8673625D01*
X7155000Y8597500D02*
Y8977500D01*
X7172160Y6650600D02*
X8102161D01*
Y7580600D01*
X7172160D02*
X8102161D01*
X7172160Y6650600D02*
Y7580600D01*
X7017682Y5921079D02*
Y6000364D01*
X6269737Y10029454D02*
X6270237Y10009454D01*
X5909737Y10076455D02*
X6079937D01*
X5909737Y9182454D02*
X6082437D01*
X6270237Y9229454D02*
Y9249454D01*
X6270200Y7826954D02*
Y7846954D01*
X5909700Y7779954D02*
X6074900D01*
X5909700Y8673954D02*
X6077400D01*
X6269700Y8626954D02*
X6270200Y8606954D01*
X8078230Y10063064D02*
Y10203064D01*
X8083230Y10238064D02*
X8383230D01*
Y10468064D01*
X8083230D02*
X8383230D01*
X8083230Y10238064D02*
Y10468064D01*
X9415464Y7654523D02*
X9785463D01*
X9415464D02*
Y8154523D01*
X9785463D01*
Y7654523D02*
Y8154523D01*
X9820463Y7652024D02*
X9967963D01*
X10384400Y7265459D02*
Y7905459D01*
X10638400D01*
Y7133459D02*
Y7905459D01*
X10511400Y7133459D02*
X10638400D01*
X9413753Y8539523D02*
X9783753D01*
X9413753D02*
Y9039523D01*
X9783753D01*
Y8539523D02*
Y9039523D01*
X9818753Y8537024D02*
X9966253D01*
X10638399Y8767041D02*
Y9407041D01*
X10384399Y8767041D02*
X10638399D01*
X10384399D02*
Y9539041D01*
X10511399D01*
X6627394Y7245000D02*
Y7296043D01*
X6694802D01*
X6817500Y8673625D02*
Y9027500D01*
D66*
X8823970Y8314727D02*
G03*
X8813970Y8314727I-5000J0D01*
G01*
D02*
G03*
X8823970Y8314727I5000J0D01*
G01*
X6642500Y9615000D02*
G03*
X6642500Y9625000I0J5000D01*
G01*
D02*
G03*
X6642500Y9615000I0J-5000D01*
G01*
X6636328Y9546949D02*
G03*
X6636328Y9536949I0J-5000D01*
G01*
D02*
G03*
X6636328Y9546949I0J5000D01*
G01*
X6644972Y8317499D02*
G03*
X6644972Y8307500I0J-5000D01*
G01*
D02*
G03*
X6644972Y8317499I0J5000D01*
G01*
X6646328Y8232499D02*
G03*
X6646328Y8242499I0J5000D01*
G01*
D02*
G03*
X6646328Y8232499I0J-5000D01*
G01*
X8903100Y6419667D02*
Y6869667D01*
X8988100D01*
X9788100D02*
X9873100D01*
Y6419667D02*
Y6869667D01*
X8903100Y5619667D02*
Y5919667D01*
Y5619667D02*
X9873100D01*
Y5919667D01*
X9873064Y9865333D02*
Y10315333D01*
X9788064Y9865333D02*
X9873064D01*
X8903064D02*
X8988064D01*
X8903064D02*
Y10315333D01*
X9873064Y10815333D02*
Y11115333D01*
X8903064D02*
X9873064D01*
X8903064Y10815333D02*
Y11115333D01*
X10384400Y6897479D02*
X10638400D01*
Y6643479D02*
Y6897479D01*
X10384400Y6643479D02*
X10638400D01*
X10384400D02*
Y6897479D01*
Y9996500D02*
X10638400D01*
Y9742500D02*
Y9996500D01*
X10384400Y9742500D02*
X10638400D01*
X10384400D02*
Y9996500D01*
D67*
X7199660Y6493100D02*
G03*
X7199660Y6493100I-12500J0D01*
G01*
X7510000Y10330000D02*
G03*
X7510000Y10330000I-12500J0D01*
G01*
D68*
X5922854Y6751325D02*
Y6876325D01*
X6422854Y6751325D02*
Y6876325D01*
X5922854Y6751325D02*
X6422854D01*
X5947854Y7501325D02*
X5997854Y7551326D01*
X6347854D01*
X6397854Y7501325D01*
D69*
X8563893Y6286945D02*
X8547232Y6270284D01*
Y6236961D01*
X8563893Y6220300D01*
X8630538D01*
X8647200Y6236961D01*
Y6270284D01*
X8630538Y6286945D01*
X8597216D01*
Y6253622D01*
X8647200Y6320268D02*
X8547232D01*
X8647200Y6386913D01*
X8547232D01*
Y6420235D02*
X8647200D01*
Y6470219D01*
X8630538Y6486880D01*
X8563893D01*
X8547232Y6470219D01*
Y6420235D01*
X6239445Y6668606D02*
X6222784Y6685268D01*
X6189461D01*
X6172800Y6668606D01*
Y6651945D01*
X6189461Y6635284D01*
X6222784D01*
X6239445Y6618623D01*
Y6601961D01*
X6222784Y6585300D01*
X6189461D01*
X6172800Y6601961D01*
X6272768Y6685268D02*
Y6585300D01*
X6306090Y6618623D01*
X6339413Y6585300D01*
Y6685268D01*
X6372736D02*
Y6585300D01*
X6422719D01*
X6439381Y6601961D01*
Y6668606D01*
X6422719Y6685268D01*
X6372736D01*
X10187232Y6955300D02*
Y6988623D01*
Y6971962D01*
X10287200D01*
Y6955300D01*
Y6988623D01*
Y7038607D02*
X10187232D01*
X10287200Y7105252D01*
X10187232D01*
X10287200Y7238542D02*
X10187232D01*
Y7288526D01*
X10203893Y7305187D01*
X10237216D01*
X10253877Y7288526D01*
Y7238542D01*
Y7271865D02*
X10287200Y7305187D01*
X10217232Y9462800D02*
Y9496122D01*
Y9479461D01*
X10317200D01*
Y9462800D01*
Y9496122D01*
Y9546106D02*
X10217232D01*
X10317200Y9612751D01*
X10217232D01*
Y9746042D02*
X10317200D01*
Y9812687D01*
X9260300Y8425268D02*
X9326945D01*
X9293623D01*
Y8325300D01*
X9360268D02*
Y8425268D01*
X9410252D01*
X9426913Y8408606D01*
Y8375284D01*
X9410252Y8358622D01*
X9360268D01*
X9526881Y8325300D02*
X9460236D01*
X9526881Y8391945D01*
Y8408606D01*
X9510219Y8425268D01*
X9476897D01*
X9460236Y8408606D01*
X8787800Y9527768D02*
X8854445D01*
X8821123D01*
Y9427800D01*
X8887768D02*
Y9527768D01*
X8937752D01*
X8954413Y9511106D01*
Y9477784D01*
X8937752Y9461123D01*
X8887768D01*
X8987736Y9427800D02*
X9021058D01*
X9004397D01*
Y9527768D01*
X8987736Y9511106D01*
X6452784Y10549700D02*
Y10483055D01*
X6486106Y10516377D02*
X6419461D01*
X6502768Y10383087D02*
Y10449732D01*
X6452784D01*
X6469445Y10416410D01*
Y10399748D01*
X6452784Y10383087D01*
X6419461D01*
X6402800Y10399748D01*
Y10433071D01*
X6419461Y10449732D01*
X6502768Y10349764D02*
X6436123D01*
X6402800Y10316442D01*
X6436123Y10283119D01*
X6502768D01*
X6486106Y10249797D02*
X6502768Y10233135D01*
Y10199813D01*
X6486106Y10183152D01*
X6419461D01*
X6402800Y10199813D01*
Y10233135D01*
X6419461Y10249797D01*
X6486106D01*
X6367800Y7837768D02*
Y7754461D01*
X6384461Y7737800D01*
X6417784D01*
X6434445Y7754461D01*
Y7837768D01*
X6534413Y7821106D02*
X6517752Y7837768D01*
X6484429D01*
X6467768Y7821106D01*
Y7804445D01*
X6484429Y7787784D01*
X6517752D01*
X6534413Y7771122D01*
Y7754461D01*
X6517752Y7737800D01*
X6484429D01*
X6467768Y7754461D01*
X6567736Y7837768D02*
Y7737800D01*
X6617720D01*
X6634381Y7754461D01*
Y7771122D01*
X6617720Y7787784D01*
X6567736D01*
X6617720D01*
X6634381Y7804445D01*
Y7821106D01*
X6617720Y7837768D01*
X6567736D01*
X6834316D02*
X6767671D01*
Y7787784D01*
X6800994D01*
X6767671D01*
Y7737800D01*
X6934284Y7821106D02*
X6917623Y7837768D01*
X6884300D01*
X6867639Y7821106D01*
Y7804445D01*
X6884300Y7787784D01*
X6917623D01*
X6934284Y7771122D01*
Y7754461D01*
X6917623Y7737800D01*
X6884300D01*
X6867639Y7754461D01*
X6450300Y9347768D02*
Y9264461D01*
X6466961Y9247800D01*
X6500284D01*
X6516945Y9264461D01*
Y9347768D01*
X6616913Y9331106D02*
X6600252Y9347768D01*
X6566929D01*
X6550268Y9331106D01*
Y9314445D01*
X6566929Y9297784D01*
X6600252D01*
X6616913Y9281122D01*
Y9264461D01*
X6600252Y9247800D01*
X6566929D01*
X6550268Y9264461D01*
X6650236Y9347768D02*
Y9247800D01*
X6700220D01*
X6716881Y9264461D01*
Y9281122D01*
X6700220Y9297784D01*
X6650236D01*
X6700220D01*
X6716881Y9314445D01*
Y9331106D01*
X6700220Y9347768D01*
X6650236D01*
X6850171D02*
Y9247800D01*
Y9297784D01*
X6916816D01*
Y9347768D01*
Y9247800D01*
X7016784Y9331106D02*
X7000123Y9347768D01*
X6966800D01*
X6950139Y9331106D01*
Y9314445D01*
X6966800Y9297784D01*
X7000123D01*
X7016784Y9281122D01*
Y9264461D01*
X7000123Y9247800D01*
X6966800D01*
X6950139Y9264461D01*
%TF.MD5,3592556a07e6713f7fba70b9eb5d7fb3*%
M02*
