%TF.GenerationSoftware,Altium Limited,Altium Designer,24.2.2 (26)*%
G04 Layer_Physical_Order=8*
G04 Layer_Color=16711680*
%FSLAX45Y45*%
%MOMM*%
%TF.SameCoordinates,9421A899-AC1A-4384-8821-8213F9677E77*%
%TF.FilePolarity,Positive*%
%TF.FileFunction,Copper,L8,Bot,Signal*%
%TF.Part,Single*%
G01*
G75*
%TA.AperFunction,SMDPad,CuDef*%
G04:AMPARAMS|DCode=15|XSize=0.6mm|YSize=0.7mm|CornerRadius=0.075mm|HoleSize=0mm|Usage=FLASHONLY|Rotation=0.000|XOffset=0mm|YOffset=0mm|HoleType=Round|Shape=RoundedRectangle|*
%AMROUNDEDRECTD15*
21,1,0.60000,0.55000,0,0,0.0*
21,1,0.45000,0.70000,0,0,0.0*
1,1,0.15000,0.22500,-0.27500*
1,1,0.15000,-0.22500,-0.27500*
1,1,0.15000,-0.22500,0.27500*
1,1,0.15000,0.22500,0.27500*
%
%ADD15ROUNDEDRECTD15*%
G04:AMPARAMS|DCode=17|XSize=0.6mm|YSize=0.7mm|CornerRadius=0.075mm|HoleSize=0mm|Usage=FLASHONLY|Rotation=90.000|XOffset=0mm|YOffset=0mm|HoleType=Round|Shape=RoundedRectangle|*
%AMROUNDEDRECTD17*
21,1,0.60000,0.55000,0,0,90.0*
21,1,0.45000,0.70000,0,0,90.0*
1,1,0.15000,0.27500,0.22500*
1,1,0.15000,0.27500,-0.22500*
1,1,0.15000,-0.27500,-0.22500*
1,1,0.15000,-0.27500,0.22500*
%
%ADD17ROUNDEDRECTD17*%
%TA.AperFunction,Conductor*%
%ADD38C,0.18635*%
%ADD39C,0.50000*%
%ADD43C,0.18600*%
%TA.AperFunction,ComponentPad*%
%ADD46C,1.60000*%
%ADD47C,1.55000*%
%ADD48C,2.40000*%
%ADD49C,1.06700*%
%ADD50C,4.46000*%
%ADD51C,1.80000*%
%TA.AperFunction,WasherPad*%
%ADD52C,1.15200*%
%TA.AperFunction,ComponentPad*%
%ADD53C,0.32500*%
%TA.AperFunction,ViaPad*%
%ADD54C,5.00000*%
%TA.AperFunction,ComponentPad*%
%ADD55C,1.65000*%
%ADD56R,1.65000X1.65000*%
%TA.AperFunction,ViaPad*%
%ADD57C,0.80000*%
%ADD58C,0.60000*%
%TA.AperFunction,SMDPad,CuDef*%
%ADD60C,1.22400*%
%ADD61C,0.72300*%
%ADD62C,0.61200*%
%ADD63C,0.56200*%
%TA.AperFunction,ComponentPad*%
%ADD64C,0.64000*%
D15*
X10152016Y7937880D02*
D03*
X10252016D02*
D03*
D17*
X10170401Y8420485D02*
D03*
Y8520485D02*
D03*
D38*
X8137500Y6127500D02*
X8377500D01*
X8572500Y6322500D02*
Y6540000D01*
X8377500Y6127500D02*
X8572500Y6322500D01*
X8115000Y6150000D02*
X8137500Y6127500D01*
X8115000Y6150000D02*
Y6207500D01*
X8120000Y6212500D01*
X8227500Y6210000D02*
X8337500D01*
X8472500Y6345000D01*
X8017500Y7095000D02*
Y8382500D01*
Y7095000D02*
X8572500Y6540000D01*
X8472500Y6345000D02*
Y6495000D01*
X8430000Y6537500D02*
X8472500Y6495000D01*
X6860000Y6020000D02*
X7217500D01*
X6815839Y6064161D02*
Y6348339D01*
Y6064161D02*
X6860000Y6020000D01*
X10304100Y8273175D02*
X10402500Y8174776D01*
Y8012500D02*
Y8174776D01*
Y8012500D02*
X10511400Y7903600D01*
Y7773459D02*
Y7903600D01*
X8687500Y8250000D02*
Y8752500D01*
X8790000Y8855000D01*
X7715000Y9347500D02*
X8745000D01*
X8790000Y9302500D01*
Y8855000D02*
Y9302500D01*
X8732500Y8205000D02*
X8850000D01*
X8687500Y8250000D02*
X8732500Y8205000D01*
X7900000Y6975000D02*
Y8510000D01*
Y6975000D02*
X8337500Y6537500D01*
X8430000D01*
X8017500Y8382500D02*
X8097500Y8462500D01*
X7900000Y8510000D02*
X7990000Y8600000D01*
X8140000D01*
X7790000Y6877500D02*
Y8630000D01*
Y6877500D02*
X8257500Y6410000D01*
X8390000D01*
X7790000Y8630000D02*
X7950000Y8790000D01*
X8150000D01*
X8257500Y8682500D01*
X7685000Y9317500D02*
X7715000Y9347500D01*
X7685000Y6767500D02*
Y9317500D01*
Y6767500D02*
X7782983Y6669518D01*
Y6014517D02*
X7787500Y6010000D01*
X7782983Y6014517D02*
Y6669518D01*
X7240000Y7040000D02*
X7270000Y7010000D01*
X6835000Y7040000D02*
X7240000D01*
X7270000Y6802500D02*
Y7010000D01*
X6815839Y6348339D02*
X7270000Y6802500D01*
X7302500Y6105000D02*
X7507500D01*
X7217500Y6020000D02*
X7302500Y6105000D01*
X7507500D02*
X7532500Y6080000D01*
Y6022500D02*
Y6080000D01*
Y6022500D02*
X7582500Y5972500D01*
X7682500D01*
D39*
X10495000Y8080206D02*
Y8099575D01*
X10467500Y8050000D02*
Y8052706D01*
X10495000Y8080206D01*
X10434413Y8466913D02*
X10444817Y8477317D01*
X10391913Y8466913D02*
X10434413D01*
X10390000Y8465000D02*
X10391913Y8466913D01*
X9305000Y8482500D02*
Y9517500D01*
X9255000Y9567500D02*
X9305000Y9517500D01*
X8567500Y9567500D02*
X9255000D01*
X9477500Y7972500D02*
Y8310000D01*
X9305000Y8482500D02*
X9477500Y8310000D01*
X10170401Y8420485D02*
X10171450Y8419435D01*
Y8343550D02*
Y8419435D01*
Y8343550D02*
X10172500Y8342500D01*
X10129413Y8556472D02*
X10165400Y8520485D01*
X10129413Y8556472D02*
Y8590587D01*
X10165400Y8520485D02*
X10170401D01*
X10185400D02*
X10190400D01*
X10192343Y8518542D01*
X10190400Y8420485D02*
X10190643Y8420242D01*
X10252016Y7937880D02*
X10254896Y7935000D01*
X10250000Y7939896D02*
X10252016Y7937880D01*
X10254896Y7935000D02*
X10319794D01*
X10352294Y7967500D02*
X10355000D01*
X10319794Y7935000D02*
X10352294Y7967500D01*
X10250000Y7939896D02*
Y8019841D01*
X10304100Y8073941D01*
Y8079975D01*
X10440206Y8385000D02*
X10445206Y8390000D01*
X10437500Y8385000D02*
X10440206D01*
X10445206Y8390000D02*
X10551051D01*
X10576151Y8415100D01*
X10577829D01*
X10484413Y8298087D02*
X10556111D01*
X10576123Y8278075D01*
X10482500Y8300000D02*
X10484413Y8298087D01*
X10576123Y8278075D02*
X10577800D01*
X10578900Y7978600D02*
Y8073976D01*
Y7978600D02*
X10580000Y7977500D01*
X10577800Y8075076D02*
X10578900Y8073976D01*
X10577664Y8618264D02*
Y8717336D01*
X10577500Y8717500D02*
X10577664Y8717336D01*
Y8618264D02*
X10577829Y8618100D01*
X10214413Y8205157D02*
Y8248087D01*
Y8205157D02*
X10244571Y8175000D01*
X10302525D01*
X10304100Y8176575D01*
X10212500Y8250000D02*
X10214413Y8248087D01*
X10127500Y8592500D02*
X10129413Y8590587D01*
X9475206Y7582500D02*
X9525206Y7532500D01*
X10010000D01*
X10132500Y7655000D01*
X9472500Y7582500D02*
X9475206D01*
X9472500D02*
Y7722500D01*
X9552500Y7802500D01*
X9477500Y7972500D02*
X9552500Y7897500D01*
Y7802500D02*
Y7897500D01*
X10154516Y7967880D02*
Y8095826D01*
X10130921Y8119421D02*
X10154516Y8095826D01*
X10130921Y8119421D02*
Y8122127D01*
X9472500Y9112294D02*
Y9115000D01*
X9462500Y8860206D02*
Y9102294D01*
X9472500Y9112294D01*
X9657500Y9115000D02*
X9717500Y9055000D01*
X9472500Y9115000D02*
X9657500D01*
X9717500Y9055000D02*
X10135000D01*
X9915000Y9375000D02*
Y10077500D01*
X10135000Y9055000D02*
Y9155000D01*
X9915000Y9375000D02*
X10135000Y9155000D01*
X8272500Y10220000D02*
X9772500D01*
X9915000Y10077500D01*
X8202500Y10290000D02*
X8272500Y10220000D01*
X8202500Y10290000D02*
Y10427500D01*
X8135000Y10000000D02*
X8567500Y9567500D01*
X10302187Y8518542D02*
X10304129Y8516600D01*
X10192343Y8518542D02*
X10302187D01*
X10190643Y8420242D02*
X10303887D01*
X10304129Y8420000D01*
D43*
Y8613200D02*
X10413200D01*
X10511399Y8711399D02*
Y8899041D01*
X10413200Y8613200D02*
X10511399Y8711399D01*
D46*
X9104700Y8413055D02*
D03*
X8944699Y9273034D02*
D03*
D47*
X8479430Y6052147D02*
D03*
X8543039Y10685354D02*
D03*
X10511400Y6770479D02*
D03*
Y9869500D02*
D03*
D48*
X5918854Y7037825D02*
D03*
Y7355325D02*
D03*
X6426854D02*
D03*
Y7037825D02*
D03*
D49*
X6172854Y7355325D02*
D03*
X6274454Y6847325D02*
D03*
X6071254D02*
D03*
D50*
X8948100Y6169667D02*
D03*
X9828100D02*
D03*
X9828064Y10565333D02*
D03*
X8948064D02*
D03*
D51*
X9138100Y6869667D02*
D03*
X9388100D02*
D03*
X9638100D02*
D03*
X9638064Y9865333D02*
D03*
X9388064D02*
D03*
X9138064D02*
D03*
D52*
X5977500Y6552500D02*
D03*
X10377500Y10185000D02*
D03*
D53*
X6144237Y9918454D02*
D03*
Y9340455D02*
D03*
X6144200Y7937954D02*
D03*
Y8515954D02*
D03*
D54*
X10377500Y6167500D02*
D03*
Y10567500D02*
D03*
X5977500Y6167500D02*
D03*
X5977500Y10567500D02*
D03*
D55*
X10511400Y7773459D02*
D03*
Y7519459D02*
D03*
X10511399Y8899041D02*
D03*
Y9153041D02*
D03*
D56*
X10511400Y7265459D02*
D03*
X10511399Y9407041D02*
D03*
D57*
X6817500Y9945000D02*
D03*
X6617500D02*
D03*
X9205000Y9240000D02*
D03*
Y9440000D02*
D03*
X9412500Y9262500D02*
D03*
Y9462500D02*
D03*
X10425000Y9640000D02*
D03*
X10397500Y7030000D02*
D03*
X9550000Y10340000D02*
D03*
X9350000D02*
D03*
X10080000Y9822500D02*
D03*
Y9622500D02*
D03*
X9735000Y9550000D02*
D03*
Y9350000D02*
D03*
X8752500Y10067500D02*
D03*
X8552500D02*
D03*
X8630000Y9710000D02*
D03*
X8475000Y9885000D02*
D03*
X8095000Y9507500D02*
D03*
X8295000D02*
D03*
X9762500Y7352500D02*
D03*
Y7152500D02*
D03*
X9492500Y7385000D02*
D03*
Y7185000D02*
D03*
X8810000Y7542500D02*
D03*
X9232500Y7300000D02*
D03*
X9032500D02*
D03*
X6755000Y6472500D02*
D03*
Y6672500D02*
D03*
X6475000Y6282500D02*
D03*
X6675000D02*
D03*
X6480000Y6585000D02*
D03*
X6280000D02*
D03*
X7402500Y8392500D02*
D03*
X7202500D02*
D03*
X7240000Y8152500D02*
D03*
X7040000D02*
D03*
X6612500Y7685000D02*
D03*
Y7885000D02*
D03*
X6532500Y8815000D02*
D03*
Y9015000D02*
D03*
X5945000Y8095000D02*
D03*
Y8295000D02*
D03*
X5970000Y9520000D02*
D03*
Y9720000D02*
D03*
X7422500Y9940000D02*
D03*
X7622500D02*
D03*
X7002500Y9945000D02*
D03*
X7202500D02*
D03*
X7770000Y9705000D02*
D03*
X7970000D02*
D03*
X7762500Y9442500D02*
D03*
X7760000Y9247500D02*
D03*
Y9047500D02*
D03*
X7485000Y9175000D02*
D03*
X7285000D02*
D03*
X6887500Y9707500D02*
D03*
X7087500D02*
D03*
X7487500D02*
D03*
X7287500D02*
D03*
Y9442500D02*
D03*
X7487500D02*
D03*
X7087500D02*
D03*
X6887500D02*
D03*
X10000000Y7000000D02*
D03*
X10250000Y6500000D02*
D03*
X9750000D02*
D03*
X9500000Y6000000D02*
D03*
X9250000Y10500000D02*
D03*
Y6500000D02*
D03*
X6500000Y6000000D02*
D03*
X6000000Y10000000D02*
D03*
Y9000000D02*
D03*
D58*
X8700000Y10337500D02*
D03*
X8120000Y6212500D02*
D03*
X8227500Y6210000D02*
D03*
X7845000Y10012500D02*
D03*
X7932500D02*
D03*
X10172500Y8342500D02*
D03*
X10370000Y8805000D02*
D03*
X10407500Y7885000D02*
D03*
X10355000Y7967500D02*
D03*
X6722500Y9105000D02*
D03*
X6907500Y9190000D02*
D03*
X10437500Y8385000D02*
D03*
X10482500Y8300000D02*
D03*
X10390000Y8465000D02*
D03*
X10467500Y8050000D02*
D03*
X10580000Y7977500D02*
D03*
X10577500Y8717500D02*
D03*
X10212500Y8250000D02*
D03*
X10080000Y8337500D02*
D03*
X9982500Y8340000D02*
D03*
X6490000Y8457500D02*
D03*
X6487500Y7995000D02*
D03*
X6667500Y8400000D02*
D03*
X6662500Y8152500D02*
D03*
X10232500Y7477500D02*
D03*
X8613970Y8434727D02*
D03*
X8330365Y10015365D02*
D03*
X7932500Y10100000D02*
D03*
X7845000D02*
D03*
X6385000Y9869500D02*
D03*
X7602500Y10110000D02*
D03*
X7690000D02*
D03*
X7375000Y10085000D02*
D03*
X7462500D02*
D03*
X9462500Y7870000D02*
D03*
X9460000Y8762500D02*
D03*
X8202500Y10427500D02*
D03*
X8135000Y10000000D02*
D03*
X10092500Y7402500D02*
D03*
X10122500Y9310000D02*
D03*
X10127500Y8592500D02*
D03*
X10130921Y8122127D02*
D03*
X10337956Y8720457D02*
D03*
X10230000Y9230000D02*
D03*
X10132500Y7655000D02*
D03*
X10135000Y9055000D02*
D03*
X9472500Y9115000D02*
D03*
Y7582500D02*
D03*
X8592500Y7602500D02*
D03*
X8407500Y9027500D02*
D03*
X9477500Y7972500D02*
D03*
X9462500Y8857500D02*
D03*
X9722500Y8617500D02*
D03*
X9715000Y8035000D02*
D03*
X9827500Y8335000D02*
D03*
X9067500Y8102500D02*
D03*
Y8957500D02*
D03*
X8850000Y8205000D02*
D03*
X8832500Y8055000D02*
D03*
X8750000Y8655000D02*
D03*
X8097500Y8462500D02*
D03*
X8477500Y9230000D02*
D03*
X8512500Y8907500D02*
D03*
X8637500Y9242500D02*
D03*
X8582500Y7450000D02*
D03*
X8592500Y7240000D02*
D03*
X8280000Y8812500D02*
D03*
X8120000Y8210000D02*
D03*
X8635000Y7085000D02*
D03*
X8632500Y6905000D02*
D03*
X8390000Y6410000D02*
D03*
X6592500Y7137500D02*
D03*
X5932500Y6837500D02*
D03*
X6085000Y7457500D02*
D03*
X6835000Y7040000D02*
D03*
X6752500Y6872500D02*
D03*
X7682500Y5972500D02*
D03*
X6835000Y6815000D02*
D03*
X7477500Y5962500D02*
D03*
X8397500Y8605000D02*
D03*
X8140000Y8600000D02*
D03*
X8257500Y8682500D02*
D03*
X8455000Y6835000D02*
D03*
X6920000Y6635000D02*
D03*
X6502500Y9860000D02*
D03*
X6680000Y9702500D02*
D03*
X6675000Y9457500D02*
D03*
X6497500Y9400000D02*
D03*
X6385000Y9389500D02*
D03*
X7937500Y6102500D02*
D03*
X7312500Y7535000D02*
D03*
X8828918Y8290923D02*
D03*
X8492500Y7920000D02*
D03*
X8430000Y8232500D02*
D03*
X8780000Y7832500D02*
D03*
X8247500Y8027500D02*
D03*
X8457500Y6735000D02*
D03*
X7787500Y6010000D02*
D03*
X6907500Y6165000D02*
D03*
X7025000Y6297500D02*
D03*
X7170000Y7905000D02*
D03*
X6992500Y7822500D02*
D03*
X8447500Y7267500D02*
D03*
X7682500Y6307500D02*
D03*
X7835000Y6285000D02*
D03*
X7167500Y6325000D02*
D03*
X6995000Y6407500D02*
D03*
X7682500Y6137870D02*
D03*
X6370000Y8617500D02*
D03*
X7840000Y10725000D02*
D03*
X6640000Y10170000D02*
D03*
Y10267500D02*
D03*
X7610000Y10697500D02*
D03*
X7697500D02*
D03*
X7130000Y10767500D02*
D03*
X7042500D02*
D03*
X7217500D02*
D03*
X7805000Y10412500D02*
D03*
X7390000Y10515000D02*
D03*
Y10415000D02*
D03*
X6742500Y10767500D02*
D03*
X6830000D02*
D03*
X6640000Y10365000D02*
D03*
Y10452500D02*
D03*
X6377500Y10030000D02*
D03*
X6375000Y9230000D02*
D03*
X6367500Y7837500D02*
D03*
X6385000Y8467000D02*
D03*
Y7987000D02*
D03*
D60*
X10514400Y8176575D02*
D03*
X10514429Y8516600D02*
D03*
D61*
X10304100Y8273175D02*
D03*
Y8079975D02*
D03*
X10304129Y8613200D02*
D03*
Y8420000D02*
D03*
D62*
X10304100Y8176575D02*
D03*
X10304129Y8516600D02*
D03*
D63*
X10577800Y8075076D02*
D03*
Y8278075D02*
D03*
X10577829Y8415100D02*
D03*
Y8618100D02*
D03*
D64*
X10514429Y8516600D02*
D03*
X10514400Y8176575D02*
D03*
%TF.MD5,17faad139de6dbd6ac7bddc072f6c661*%
M02*
