%TF.GenerationSoftware,Altium Limited,Altium Designer,24.2.2 (26)*%
G04 Layer_Color=16711935*
%FSLAX45Y45*%
%MOMM*%
%TF.SameCoordinates,9421A899-AC1A-4384-8821-8213F9677E77*%
%TF.FilePolarity,Negative*%
%TF.FileFunction,Soldermask,Bot*%
%TF.Part,Single*%
G01*
G75*
%TA.AperFunction,SMDPad,CuDef*%
G04:AMPARAMS|DCode=75|XSize=0.66mm|YSize=0.76mm|CornerRadius=0.105mm|HoleSize=0mm|Usage=FLASHONLY|Rotation=0.000|XOffset=0mm|YOffset=0mm|HoleType=Round|Shape=RoundedRectangle|*
%AMROUNDEDRECTD75*
21,1,0.66000,0.55000,0,0,0.0*
21,1,0.45000,0.76000,0,0,0.0*
1,1,0.21000,0.22500,-0.27500*
1,1,0.21000,-0.22500,-0.27500*
1,1,0.21000,-0.22500,0.27500*
1,1,0.21000,0.22500,0.27500*
%
%ADD75ROUNDEDRECTD75*%
G04:AMPARAMS|DCode=77|XSize=0.66mm|YSize=0.76mm|CornerRadius=0.105mm|HoleSize=0mm|Usage=FLASHONLY|Rotation=90.000|XOffset=0mm|YOffset=0mm|HoleType=Round|Shape=RoundedRectangle|*
%AMROUNDEDRECTD77*
21,1,0.66000,0.55000,0,0,90.0*
21,1,0.45000,0.76000,0,0,90.0*
1,1,0.21000,0.27500,0.22500*
1,1,0.21000,0.27500,-0.22500*
1,1,0.21000,-0.27500,-0.22500*
1,1,0.21000,-0.27500,0.22500*
%
%ADD77ROUNDEDRECTD77*%
%TA.AperFunction,ComponentPad*%
%ADD96C,0.70000*%
%ADD97C,1.66000*%
%ADD98C,1.61000*%
%ADD99C,2.46000*%
%ADD100C,1.12700*%
%ADD101C,4.52000*%
%ADD102C,1.86000*%
%TA.AperFunction,WasherPad*%
%ADD103C,1.21200*%
%TA.AperFunction,ComponentPad*%
%ADD104C,0.38500*%
%TA.AperFunction,ViaPad*%
%ADD105C,5.06000*%
%TA.AperFunction,ComponentPad*%
%ADD106C,1.71000*%
%ADD107R,1.71000X1.71000*%
%TA.AperFunction,SMDPad,CuDef*%
%ADD108C,1.28400*%
%ADD109C,0.78300*%
%ADD110C,0.67200*%
%ADD111C,0.62200*%
D75*
X10152016Y7937880D02*
D03*
X10252016D02*
D03*
D77*
X10170401Y8420485D02*
D03*
Y8520485D02*
D03*
D96*
X10514429Y8516600D02*
D03*
X10514400Y8176575D02*
D03*
D97*
X9104700Y8413055D02*
D03*
X8944699Y9273034D02*
D03*
D98*
X8479430Y6052147D02*
D03*
X8543039Y10685354D02*
D03*
X10511400Y6770479D02*
D03*
Y9869500D02*
D03*
D99*
X5918854Y7037825D02*
D03*
Y7355325D02*
D03*
X6426854D02*
D03*
Y7037825D02*
D03*
D100*
X6172854Y7355325D02*
D03*
X6274454Y6847325D02*
D03*
X6071254D02*
D03*
D101*
X8948100Y6169667D02*
D03*
X9828100D02*
D03*
X9828064Y10565333D02*
D03*
X8948064D02*
D03*
D102*
X9138100Y6869667D02*
D03*
X9388100D02*
D03*
X9638100D02*
D03*
X9638064Y9865333D02*
D03*
X9388064D02*
D03*
X9138064D02*
D03*
D103*
X5977500Y6552500D02*
D03*
X10377500Y10185000D02*
D03*
D104*
X6144237Y9918454D02*
D03*
Y9340455D02*
D03*
X6144200Y7937954D02*
D03*
Y8515954D02*
D03*
D105*
X10377500Y6167500D02*
D03*
Y10567500D02*
D03*
X5977500Y6167500D02*
D03*
X5977500Y10567500D02*
D03*
D106*
X10511400Y7773459D02*
D03*
Y7519459D02*
D03*
X10511399Y8899041D02*
D03*
Y9153041D02*
D03*
D107*
X10511400Y7265459D02*
D03*
X10511399Y9407041D02*
D03*
D108*
X10514400Y8176575D02*
D03*
X10514429Y8516600D02*
D03*
D109*
X10304100Y8273175D02*
D03*
Y8079975D02*
D03*
X10304129Y8613200D02*
D03*
Y8420000D02*
D03*
D110*
X10304100Y8176575D02*
D03*
X10304129Y8516600D02*
D03*
D111*
X10577800Y8075076D02*
D03*
Y8278075D02*
D03*
X10577829Y8415100D02*
D03*
Y8618100D02*
D03*
%TF.MD5,e8cb281b6647fc282a552a3c2fa7e3c3*%
M02*
