%TF.GenerationSoftware,Altium Limited,Altium Designer,24.2.2 (26)*%
G04 Layer_Physical_Order=3*
G04 Layer_Color=16440176*
%FSLAX45Y45*%
%MOMM*%
%TF.SameCoordinates,9421A899-AC1A-4384-8821-8213F9677E77*%
%TF.FilePolarity,Positive*%
%TF.FileFunction,Copper,L3,Inr,Signal*%
%TF.Part,Single*%
G01*
G75*
%TA.AperFunction,ComponentPad*%
%ADD46C,1.60000*%
%ADD47C,1.55000*%
%ADD48C,2.40000*%
%ADD49C,1.06700*%
%ADD50C,4.46000*%
%ADD51C,1.80000*%
%TA.AperFunction,WasherPad*%
%ADD52C,1.15200*%
%TA.AperFunction,ComponentPad*%
%ADD53C,0.32500*%
%TA.AperFunction,ViaPad*%
%ADD54C,5.00000*%
%TA.AperFunction,ComponentPad*%
%ADD55C,1.65000*%
%ADD56R,1.65000X1.65000*%
%TA.AperFunction,ViaPad*%
%ADD57C,0.80000*%
%ADD58C,0.60000*%
%TA.AperFunction,Conductor*%
%ADD59C,0.17229*%
G36*
X10377500Y10567500D02*
X10627500D01*
Y6167500D01*
X10377500D01*
Y5917500D01*
X7713561Y5917500D01*
X7710916Y5929685D01*
X7710911Y5930200D01*
X7724888Y5944177D01*
X7732500Y5962554D01*
Y5978939D01*
X7744684Y5981584D01*
X7745200Y5981589D01*
X7759177Y5967612D01*
X7777554Y5960000D01*
X7797446D01*
X7815823Y5967612D01*
X7829888Y5981677D01*
X7837500Y6000054D01*
Y6019946D01*
X7829888Y6038323D01*
X7815823Y6052388D01*
X7797446Y6060000D01*
X7777554D01*
X7759177Y6052388D01*
X7745112Y6038323D01*
X7737500Y6019946D01*
Y6003561D01*
X7725316Y6000916D01*
X7724800Y6000911D01*
X7710823Y6014888D01*
X7692446Y6022500D01*
X7672554D01*
X7654177Y6014888D01*
X7640112Y6000823D01*
X7632500Y5982446D01*
Y5962554D01*
X7640112Y5944177D01*
X7654089Y5930200D01*
X7654084Y5929685D01*
X7651439Y5917500D01*
X5977500D01*
Y6167500D01*
X5727500D01*
Y10567500D01*
X5977500D01*
Y10817500D01*
X10377500D01*
Y10567500D01*
D02*
G37*
%LPC*%
G36*
X8212446Y10477500D02*
X8192554D01*
X8174177Y10469888D01*
X8160112Y10455823D01*
X8152500Y10437446D01*
Y10417554D01*
X8160112Y10399177D01*
X8174177Y10385112D01*
X8192554Y10377500D01*
X8212446D01*
X8230823Y10385112D01*
X8244888Y10399177D01*
X8252500Y10417554D01*
Y10437446D01*
X8244888Y10455823D01*
X8230823Y10469888D01*
X8212446Y10477500D01*
D02*
G37*
G36*
X7699945Y10160000D02*
X7680054D01*
X7661677Y10152388D01*
X7654547Y10145258D01*
X7646250Y10139301D01*
X7637953Y10145258D01*
X7630823Y10152388D01*
X7612446Y10160000D01*
X7592554D01*
X7574177Y10152388D01*
X7560112Y10138323D01*
X7552500Y10119946D01*
Y10100054D01*
X7560112Y10081677D01*
X7574177Y10067612D01*
X7592554Y10060000D01*
X7612446D01*
X7630823Y10067612D01*
X7637953Y10074743D01*
X7646250Y10080699D01*
X7654547Y10074743D01*
X7661677Y10067612D01*
X7680054Y10060000D01*
X7699945D01*
X7718323Y10067612D01*
X7732388Y10081677D01*
X7740000Y10100054D01*
Y10119946D01*
X7732388Y10138323D01*
X7718323Y10152388D01*
X7699945Y10160000D01*
D02*
G37*
G36*
X7942446Y10150000D02*
X7922554D01*
X7904177Y10142388D01*
X7897047Y10135258D01*
X7888750Y10129301D01*
X7880453Y10135258D01*
X7873323Y10142388D01*
X7854946Y10150000D01*
X7835054D01*
X7816677Y10142388D01*
X7802612Y10128323D01*
X7795000Y10109946D01*
Y10090054D01*
X7802612Y10071677D01*
X7809743Y10064547D01*
X7815699Y10056250D01*
X7809743Y10047953D01*
X7802612Y10040823D01*
X7795000Y10022446D01*
Y10002554D01*
X7802612Y9984177D01*
X7816677Y9970112D01*
X7835054Y9962500D01*
X7854946D01*
X7873323Y9970112D01*
X7880453Y9977242D01*
X7888750Y9983199D01*
X7897047Y9977242D01*
X7904177Y9970112D01*
X7922554Y9962500D01*
X7942446D01*
X7960823Y9970112D01*
X7974888Y9984177D01*
X7982500Y10002554D01*
Y10022446D01*
X7974888Y10040823D01*
X7967757Y10047953D01*
X7961801Y10056250D01*
X7967757Y10064547D01*
X7974888Y10071677D01*
X7982500Y10090054D01*
Y10109946D01*
X7974888Y10128323D01*
X7960823Y10142388D01*
X7942446Y10150000D01*
D02*
G37*
G36*
X6649945Y10502500D02*
X6630054D01*
X6611677Y10494888D01*
X6597612Y10480823D01*
X6590000Y10462445D01*
Y10442554D01*
X6597612Y10424177D01*
X6604742Y10417046D01*
X6610699Y10408750D01*
X6604742Y10400453D01*
X6597612Y10393323D01*
X6590000Y10374945D01*
Y10355054D01*
X6597612Y10336677D01*
X6611677Y10322612D01*
X6611706Y10322600D01*
Y10309900D01*
X6611677Y10309888D01*
X6597612Y10295823D01*
X6590000Y10277446D01*
Y10257554D01*
X6597612Y10239177D01*
X6611677Y10225112D01*
X6611706Y10225100D01*
Y10212400D01*
X6611677Y10212388D01*
X6597612Y10198323D01*
X6590000Y10179945D01*
Y10160054D01*
X6597612Y10141677D01*
X6611677Y10127612D01*
X6630054Y10120000D01*
X6649945D01*
X6668322Y10127612D01*
X6682388Y10141677D01*
X6690000Y10160054D01*
Y10179945D01*
X6682388Y10198323D01*
X6668322Y10212388D01*
X6668293Y10212400D01*
Y10225100D01*
X6668322Y10225112D01*
X6682388Y10239177D01*
X6690000Y10257554D01*
Y10277446D01*
X6682388Y10295823D01*
X6668322Y10309888D01*
X6668294Y10309900D01*
Y10322600D01*
X6668322Y10322612D01*
X6682388Y10336677D01*
X6690000Y10355054D01*
Y10374945D01*
X6682388Y10393323D01*
X6675257Y10400453D01*
X6669301Y10408750D01*
X6675257Y10417046D01*
X6682388Y10424177D01*
X6690000Y10442554D01*
Y10462445D01*
X6682388Y10480823D01*
X6668322Y10494888D01*
X6649945Y10502500D01*
D02*
G37*
G36*
X10387716Y10262600D02*
X10367284D01*
X10347548Y10257312D01*
X10329853Y10247095D01*
X10315405Y10232648D01*
X10305188Y10214953D01*
X10299900Y10195216D01*
Y10174784D01*
X10305188Y10155048D01*
X10315405Y10137353D01*
X10329853Y10122905D01*
X10340996Y10116471D01*
X10347548Y10112689D01*
X10367284Y10107400D01*
X10387716D01*
X10407452Y10112689D01*
X10425147Y10122905D01*
X10439595Y10137353D01*
X10449811Y10155048D01*
X10455100Y10174784D01*
Y10195216D01*
X10449811Y10214953D01*
X10439595Y10232648D01*
X10425147Y10247095D01*
X10407452Y10257312D01*
X10387716Y10262600D01*
D02*
G37*
G36*
X8144946Y10050000D02*
X8125054D01*
X8106677Y10042388D01*
X8092612Y10028323D01*
X8085000Y10009946D01*
Y9990054D01*
X8092612Y9971677D01*
X8106677Y9957612D01*
X8125054Y9950000D01*
X8144946D01*
X8163323Y9957612D01*
X8177388Y9971677D01*
X8185000Y9990054D01*
Y10009946D01*
X8177388Y10028323D01*
X8163323Y10042388D01*
X8144946Y10050000D01*
D02*
G37*
G36*
X6154680Y9970954D02*
X6133794D01*
X6114498Y9962962D01*
X6099730Y9948193D01*
X6091737Y9928897D01*
Y9908011D01*
X6099730Y9888716D01*
X6114498Y9873947D01*
X6133794Y9865954D01*
X6154680D01*
X6173976Y9873947D01*
X6188745Y9888716D01*
X6196737Y9908011D01*
Y9928897D01*
X6188745Y9948193D01*
X6173976Y9962962D01*
X6154680Y9970954D01*
D02*
G37*
G36*
X6394946Y9919500D02*
X6375054D01*
X6356677Y9911888D01*
X6342612Y9897823D01*
X6335000Y9879446D01*
Y9859554D01*
X6342612Y9841177D01*
X6356677Y9827112D01*
X6375054Y9819500D01*
X6394946D01*
X6413323Y9827112D01*
X6427388Y9841177D01*
X6435000Y9859554D01*
Y9879446D01*
X6427388Y9897823D01*
X6413323Y9911888D01*
X6394946Y9919500D01*
D02*
G37*
G36*
X10135000Y10280000D02*
X8765000D01*
X8715000Y10230000D01*
Y9522700D01*
X8702300Y9510000D01*
X7742500Y9510000D01*
X7692499Y9459999D01*
X7692500Y6875000D01*
X7767500Y6800000D01*
X8419289Y6800000D01*
X8426677Y6792612D01*
X8445054Y6785000D01*
X8464946D01*
X8483323Y6792612D01*
X8490711Y6800000D01*
X8717500D01*
X8780000Y6862500D01*
X8780000Y7312500D01*
X8737500Y7355000D01*
X8195000Y7355000D01*
X8157500Y7392500D01*
Y8553129D01*
X8168323Y8557612D01*
X8182388Y8571677D01*
X8190000Y8590054D01*
Y8609946D01*
X8182388Y8628323D01*
X8168323Y8642388D01*
X8157500Y8646871D01*
Y8810000D01*
X8212500Y8865000D01*
X8484448D01*
X8502554Y8857500D01*
X8522446D01*
X8540552Y8865000D01*
X8897500D01*
Y8246171D01*
X8884800Y8240911D01*
X8878323Y8247388D01*
X8859946Y8255000D01*
X8840054D01*
X8821677Y8247388D01*
X8807612Y8233323D01*
X8800000Y8214946D01*
Y8195054D01*
X8807612Y8176677D01*
X8821677Y8162612D01*
X8840054Y8155000D01*
X8859946D01*
X8878323Y8162612D01*
X8884800Y8169089D01*
X8897500Y8163829D01*
Y6705000D01*
X8937500Y6665000D01*
X9777500D01*
X9820000Y6707500D01*
Y7877500D01*
X9845000Y7902500D01*
X10147500D01*
X10165000Y7920000D01*
Y8292500D01*
X10182446D01*
X10200823Y8300112D01*
X10214888Y8314177D01*
X10222500Y8332554D01*
Y8352446D01*
X10214888Y8370823D01*
X10200823Y8384888D01*
X10182446Y8392500D01*
X10165000D01*
Y9014289D01*
X10177388Y9026677D01*
X10185000Y9045054D01*
Y9064946D01*
X10177388Y9083323D01*
X10165000Y9095711D01*
Y10250000D01*
X10135000Y10280000D01*
D02*
G37*
G36*
X6394946Y9439500D02*
X6375054D01*
X6356677Y9431888D01*
X6342612Y9417823D01*
X6335000Y9399446D01*
Y9379554D01*
X6342612Y9361177D01*
X6356677Y9347112D01*
X6375054Y9339500D01*
X6394946D01*
X6413323Y9347112D01*
X6427388Y9361177D01*
X6435000Y9379554D01*
Y9399446D01*
X6427388Y9417823D01*
X6413323Y9431888D01*
X6394946Y9439500D01*
D02*
G37*
G36*
X10582500Y9985000D02*
X10442500D01*
X10408899Y9951399D01*
Y9509541D01*
Y9304541D01*
X10613899D01*
Y9509541D01*
Y9953601D01*
X10582500Y9985000D01*
D02*
G37*
G36*
X6154680Y9392955D02*
X6133794D01*
X6114498Y9384962D01*
X6099730Y9370193D01*
X6091737Y9350897D01*
Y9330012D01*
X6099730Y9310716D01*
X6114498Y9295947D01*
X6133794Y9287954D01*
X6154680D01*
X6173976Y9295947D01*
X6188745Y9310716D01*
X6196737Y9330012D01*
Y9350897D01*
X6188745Y9370193D01*
X6173976Y9384962D01*
X6154680Y9392955D01*
D02*
G37*
G36*
X6917446Y9240000D02*
X6897554D01*
X6879177Y9232388D01*
X6865112Y9218323D01*
X6857500Y9199946D01*
Y9180054D01*
X6865112Y9161677D01*
X6879177Y9147612D01*
X6897554Y9140000D01*
X6917446D01*
X6935823Y9147612D01*
X6949888Y9161677D01*
X6957500Y9180054D01*
Y9199946D01*
X6949888Y9218323D01*
X6935823Y9232388D01*
X6917446Y9240000D01*
D02*
G37*
G36*
X10524894Y9255541D02*
X10497905D01*
X10471836Y9248556D01*
X10448463Y9235062D01*
X10429379Y9215978D01*
X10415885Y9192605D01*
X10408899Y9166535D01*
Y9139547D01*
X10415885Y9113478D01*
X10429379Y9090105D01*
X10448463Y9071021D01*
X10471836Y9057526D01*
X10497905Y9050541D01*
X10524894D01*
X10550963Y9057526D01*
X10574336Y9071021D01*
X10593420Y9090105D01*
X10606914Y9113478D01*
X10613899Y9139547D01*
Y9166535D01*
X10606914Y9192605D01*
X10593420Y9215978D01*
X10574336Y9235062D01*
X10550963Y9248556D01*
X10524894Y9255541D01*
D02*
G37*
G36*
Y9001541D02*
X10497905D01*
X10471836Y8994556D01*
X10448463Y8981062D01*
X10429379Y8961978D01*
X10415885Y8938605D01*
X10408899Y8912535D01*
Y8885547D01*
X10415885Y8859478D01*
X10429379Y8836105D01*
X10448463Y8817021D01*
X10471836Y8803526D01*
X10497905Y8796541D01*
X10524894D01*
X10550963Y8803526D01*
X10574336Y8817021D01*
X10593420Y8836105D01*
X10606914Y8859478D01*
X10613899Y8885547D01*
Y8912535D01*
X10606914Y8938605D01*
X10593420Y8961978D01*
X10574336Y8981062D01*
X10550963Y8994556D01*
X10524894Y9001541D01*
D02*
G37*
G36*
X10347902Y8770456D02*
X10328011D01*
X10309634Y8762845D01*
X10295568Y8748779D01*
X10287957Y8730402D01*
Y8710511D01*
X10295568Y8692134D01*
X10309634Y8678068D01*
X10328011Y8670457D01*
X10347902D01*
X10364800Y8677456D01*
X10366279Y8678068D01*
X10380344Y8692134D01*
X10387956Y8710511D01*
Y8730402D01*
X10380344Y8748779D01*
X10366279Y8762845D01*
X10364800Y8763457D01*
D01*
X10347902Y8770456D01*
D02*
G37*
G36*
X8267446Y8732500D02*
X8247554D01*
X8229177Y8724888D01*
X8215112Y8710823D01*
X8207500Y8692446D01*
Y8672554D01*
X8215112Y8654177D01*
X8229177Y8640112D01*
X8247554Y8632500D01*
X8267446D01*
X8285823Y8640112D01*
X8299888Y8654177D01*
X8307500Y8672554D01*
Y8692446D01*
X8299888Y8710823D01*
X8285823Y8724888D01*
X8267446Y8732500D01*
D02*
G37*
G36*
X10524772Y8568600D02*
X10504086D01*
X10499258Y8566600D01*
X10464400D01*
Y8531701D01*
X10462429Y8526943D01*
Y8506257D01*
X10464400Y8501499D01*
Y8466600D01*
X10499257D01*
X10504086Y8464600D01*
X10524772D01*
X10529601Y8466600D01*
X10564400D01*
Y8501358D01*
X10566429Y8506257D01*
Y8526943D01*
X10564400Y8531842D01*
Y8566600D01*
X10529600D01*
X10524772Y8568600D01*
D02*
G37*
G36*
X6154643Y8568454D02*
X6133757D01*
X6114461Y8560462D01*
X6099693Y8545693D01*
X6091700Y8526397D01*
Y8505511D01*
X6099693Y8486215D01*
X6114461Y8471447D01*
X6133757Y8463454D01*
X6154643D01*
X6173939Y8471447D01*
X6188707Y8486215D01*
X6196700Y8505511D01*
Y8526397D01*
X6188707Y8545693D01*
X6173939Y8560462D01*
X6154643Y8568454D01*
D02*
G37*
G36*
X6394946Y8517000D02*
X6375054D01*
X6356677Y8509388D01*
X6342612Y8495323D01*
X6335000Y8476946D01*
Y8457054D01*
X6342612Y8438677D01*
X6356677Y8424612D01*
X6375054Y8417000D01*
X6394946D01*
X6413323Y8424612D01*
X6427388Y8438677D01*
X6435000Y8457054D01*
Y8476946D01*
X6427388Y8495323D01*
X6413323Y8509388D01*
X6394946Y8517000D01*
D02*
G37*
G36*
X10524744Y8228575D02*
X10504057D01*
X10499288Y8226600D01*
X10464400D01*
Y8191747D01*
X10462400Y8186919D01*
Y8166232D01*
X10464400Y8161404D01*
Y8126600D01*
X10499169D01*
X10504057Y8124576D01*
X10524744D01*
X10529632Y8126600D01*
X10564400D01*
Y8161403D01*
X10566400Y8166232D01*
Y8186919D01*
X10564400Y8191748D01*
Y8226600D01*
X10529513D01*
X10524744Y8228575D01*
D02*
G37*
G36*
X6394946Y8037000D02*
X6375054D01*
X6356677Y8029388D01*
X6342612Y8015323D01*
X6335000Y7996946D01*
Y7977054D01*
X6342612Y7958677D01*
X6356677Y7944612D01*
X6375054Y7937000D01*
X6394946D01*
X6413323Y7944612D01*
X6427388Y7958677D01*
X6435000Y7977054D01*
Y7996946D01*
X6427388Y8015323D01*
X6413323Y8029388D01*
X6394946Y8037000D01*
D02*
G37*
G36*
X10364946Y8017500D02*
X10345054D01*
X10332700Y8012383D01*
X10326677Y8009888D01*
X10312612Y7995823D01*
X10305000Y7977446D01*
Y7957554D01*
X10312612Y7939177D01*
X10326677Y7925112D01*
X10345054Y7917500D01*
X10364946D01*
X10383323Y7925112D01*
X10397388Y7939177D01*
X10405000Y7957554D01*
Y7977446D01*
X10397388Y7995823D01*
X10383323Y8009888D01*
X10366940Y8016674D01*
X10364946Y8017500D01*
D02*
G37*
G36*
X6154643Y7990454D02*
X6133757D01*
X6114461Y7982462D01*
X6099693Y7967693D01*
X6091700Y7948397D01*
Y7927511D01*
X6099693Y7908216D01*
X6114461Y7893447D01*
X6133757Y7885454D01*
X6154643D01*
X6173939Y7893447D01*
X6188707Y7908216D01*
X6196700Y7927511D01*
Y7948397D01*
X6188707Y7967693D01*
X6173939Y7982462D01*
X6154643Y7990454D01*
D02*
G37*
G36*
X8502446Y7970000D02*
X8482554D01*
X8464177Y7962388D01*
X8450112Y7948323D01*
X8442500Y7929946D01*
Y7910054D01*
X8450112Y7891677D01*
X8464177Y7877612D01*
X8482554Y7870000D01*
X8502446D01*
X8520823Y7877612D01*
X8534888Y7891677D01*
X8542500Y7910054D01*
Y7929946D01*
X8534888Y7948323D01*
X8520823Y7962388D01*
X8502446Y7970000D01*
D02*
G37*
G36*
X7179946Y7955000D02*
X7160054D01*
X7141677Y7947388D01*
X7127612Y7933323D01*
X7120000Y7914946D01*
Y7895054D01*
X7127612Y7876677D01*
X7141677Y7862612D01*
X7160054Y7855000D01*
X7179946D01*
X7198323Y7862612D01*
X7212388Y7876677D01*
X7220000Y7895054D01*
Y7914946D01*
X7212388Y7933323D01*
X7198323Y7947388D01*
X7179946Y7955000D01*
D02*
G37*
G36*
X10524894Y7875959D02*
X10497906D01*
X10471837Y7868974D01*
X10448464Y7855479D01*
X10429380Y7836395D01*
X10415885Y7813022D01*
X10408900Y7786953D01*
Y7759965D01*
X10415885Y7733895D01*
X10429380Y7710523D01*
X10448464Y7691439D01*
X10471837Y7677944D01*
X10497906Y7670959D01*
X10524894D01*
X10550964Y7677944D01*
X10574336Y7691439D01*
X10593421Y7710523D01*
X10606915Y7733895D01*
X10613900Y7759965D01*
Y7786953D01*
X10606915Y7813022D01*
X10593421Y7836395D01*
X10574336Y7855479D01*
X10550964Y7868974D01*
X10524894Y7875959D01*
D02*
G37*
G36*
X10142446Y7705000D02*
X10122554D01*
X10104177Y7697388D01*
X10090112Y7683323D01*
X10082500Y7664946D01*
Y7645054D01*
X10090112Y7626677D01*
X10104177Y7612612D01*
X10122554Y7605000D01*
X10142446D01*
X10160823Y7612612D01*
X10174888Y7626677D01*
X10182500Y7645054D01*
Y7664946D01*
X10174888Y7683323D01*
X10160823Y7697388D01*
X10142446Y7705000D01*
D02*
G37*
G36*
X8602446Y7652500D02*
X8582554D01*
X8564177Y7644888D01*
X8550112Y7630823D01*
X8542500Y7612446D01*
Y7592554D01*
X8550112Y7574177D01*
X8564177Y7560112D01*
X8582554Y7552500D01*
X8602446D01*
X8620823Y7560112D01*
X8634888Y7574177D01*
X8642500Y7592554D01*
Y7612446D01*
X8634888Y7630823D01*
X8620823Y7644888D01*
X8602446Y7652500D01*
D02*
G37*
G36*
X6094946Y7507500D02*
X6075054D01*
X6067500Y7504371D01*
D01*
X6056677Y7499888D01*
X6042612Y7485823D01*
X6035000Y7467446D01*
Y7455129D01*
X6022300Y7449869D01*
D01*
X6004816Y7467353D01*
X5972892Y7485785D01*
X5937285Y7495325D01*
X5900423D01*
X5864816Y7485785D01*
X5832892Y7467353D01*
X5806826Y7441287D01*
X5788395Y7409363D01*
X5778854Y7373757D01*
Y7336894D01*
X5788395Y7301287D01*
X5806826Y7269363D01*
X5832892Y7243298D01*
X5864816Y7224866D01*
X5900423Y7215325D01*
X5937285D01*
X5972892Y7224866D01*
X6004816Y7243298D01*
X6030882Y7269363D01*
X6049313Y7301287D01*
X6054800Y7321764D01*
D01*
X6058854Y7336894D01*
Y7373757D01*
X6050587Y7404609D01*
X6061096Y7413282D01*
X6075054Y7407500D01*
X6094946D01*
X6109267Y7413432D01*
X6116461Y7402665D01*
X6114159Y7400363D01*
X6104503Y7383638D01*
X6099504Y7364982D01*
Y7345669D01*
X6104503Y7327013D01*
X6114159Y7310287D01*
X6127816Y7296631D01*
X6144542Y7286974D01*
X6163197Y7281976D01*
X6182510D01*
X6201166Y7286974D01*
X6217892Y7296631D01*
X6231548Y7310287D01*
X6241205Y7327013D01*
X6246204Y7345669D01*
Y7364982D01*
X6241205Y7383638D01*
X6231548Y7400363D01*
X6217892Y7414020D01*
X6201166Y7423677D01*
X6182510Y7428675D01*
X6163197D01*
X6144542Y7423677D01*
X6133437Y7417265D01*
X6125638Y7427428D01*
X6127388Y7429177D01*
X6135000Y7447554D01*
Y7467446D01*
X6127388Y7485823D01*
X6113323Y7499888D01*
X6094946Y7507500D01*
D02*
G37*
G36*
X10524894Y7621959D02*
X10497906D01*
X10471837Y7614974D01*
X10448464Y7601479D01*
X10429380Y7582395D01*
X10415885Y7559022D01*
X10408900Y7532953D01*
Y7505965D01*
X10415885Y7479895D01*
X10429380Y7456523D01*
X10448464Y7437439D01*
X10471837Y7423944D01*
X10497906Y7416959D01*
X10524894D01*
X10550964Y7423944D01*
X10574336Y7437439D01*
X10593421Y7456523D01*
X10606915Y7479895D01*
X10613900Y7505965D01*
Y7532953D01*
X10606915Y7559022D01*
X10593421Y7582395D01*
X10574336Y7601479D01*
X10550964Y7614974D01*
X10524894Y7621959D01*
D02*
G37*
G36*
X6445285Y7495325D02*
X6408423D01*
X6372816Y7485785D01*
X6340892Y7467353D01*
X6314826Y7441287D01*
X6296395Y7409363D01*
X6286854Y7373757D01*
Y7336894D01*
X6296395Y7301287D01*
X6314826Y7269363D01*
X6340892Y7243298D01*
X6372816Y7224866D01*
X6408423Y7215325D01*
X6445285D01*
X6480892Y7224866D01*
X6512816Y7243298D01*
X6538882Y7269363D01*
X6557313Y7301287D01*
X6566854Y7336894D01*
Y7373757D01*
X6557313Y7409363D01*
X6538882Y7441287D01*
X6512816Y7467353D01*
X6480892Y7485785D01*
X6445285Y7495325D01*
D02*
G37*
G36*
X5937285Y7177825D02*
X5900423D01*
X5864816Y7168285D01*
X5832892Y7149853D01*
X5806826Y7123787D01*
X5788395Y7091863D01*
X5778854Y7056257D01*
Y7019394D01*
X5788395Y6983787D01*
X5806826Y6951863D01*
X5832892Y6925798D01*
X5864816Y6907366D01*
X5900423Y6897825D01*
X5937285D01*
X5972892Y6907366D01*
X6004816Y6925798D01*
X6030882Y6951863D01*
X6049313Y6983787D01*
X6054800Y7004264D01*
D01*
X6058854Y7019394D01*
Y7056257D01*
X6054800Y7071387D01*
X6049313Y7091863D01*
X6030882Y7123787D01*
X6004816Y7149853D01*
X5972892Y7168285D01*
X5937285Y7177825D01*
D02*
G37*
G36*
X6844946Y7090000D02*
X6825054D01*
X6806677Y7082388D01*
X6792612Y7068323D01*
X6785000Y7049946D01*
Y7030054D01*
X6792612Y7011677D01*
X6806677Y6997612D01*
X6825054Y6990000D01*
X6844946D01*
X6863323Y6997612D01*
X6877388Y7011677D01*
X6885000Y7030054D01*
Y7049946D01*
X6877388Y7068323D01*
X6863323Y7082388D01*
X6844946Y7090000D01*
D02*
G37*
G36*
X6445285Y7177825D02*
X6408423D01*
X6372816Y7168285D01*
X6340892Y7149853D01*
X6314826Y7123787D01*
X6296395Y7091863D01*
X6286854Y7056257D01*
Y7019394D01*
X6296395Y6983787D01*
X6314826Y6951863D01*
X6340892Y6925798D01*
X6372816Y6907366D01*
X6408423Y6897825D01*
X6445285D01*
X6480892Y6907366D01*
X6512816Y6925798D01*
X6538882Y6951863D01*
X6557313Y6983787D01*
X6566854Y7019394D01*
Y7056257D01*
X6557313Y7091863D01*
X6538882Y7123787D01*
X6512816Y7149853D01*
X6480892Y7168285D01*
X6445285Y7177825D01*
D02*
G37*
G36*
X6284110Y6920675D02*
X6264797D01*
X6246142Y6915677D01*
X6229416Y6906020D01*
X6215759Y6892363D01*
X6206103Y6875638D01*
X6201104Y6856982D01*
Y6837669D01*
X6206103Y6819013D01*
X6215759Y6802287D01*
X6229416Y6788631D01*
X6246142Y6778974D01*
X6264797Y6773976D01*
X6284110D01*
X6302766Y6778974D01*
X6319492Y6788631D01*
X6333148Y6802287D01*
X6342805Y6819013D01*
X6347804Y6837669D01*
Y6856982D01*
X6342805Y6875638D01*
X6333148Y6892363D01*
X6319492Y6906020D01*
X6302766Y6915677D01*
X6284110Y6920675D01*
D02*
G37*
G36*
X6080910D02*
X6061597D01*
X6042942Y6915677D01*
X6026216Y6906020D01*
X6012559Y6892363D01*
X6002903Y6875638D01*
X5997904Y6856982D01*
Y6837669D01*
X6002903Y6819013D01*
X6012559Y6802287D01*
X6026216Y6788631D01*
X6042942Y6778974D01*
X6061597Y6773976D01*
X6080910D01*
X6099566Y6778974D01*
X6116292Y6788631D01*
X6129948Y6802287D01*
X6139605Y6819013D01*
X6144604Y6837669D01*
Y6856982D01*
X6139605Y6875638D01*
X6129948Y6892363D01*
X6116292Y6906020D01*
X6099566Y6915677D01*
X6080910Y6920675D01*
D02*
G37*
G36*
X10613900Y7367959D02*
X10408900D01*
Y7162959D01*
Y6666100D01*
X10417500Y6657500D01*
X10605000D01*
X10613900Y6666400D01*
Y7162959D01*
Y7367959D01*
D02*
G37*
G36*
X6929945Y6685000D02*
X6910054D01*
X6891677Y6677388D01*
X6877612Y6663323D01*
X6870000Y6644946D01*
Y6625054D01*
X6877612Y6606677D01*
X6891677Y6592612D01*
X6910054Y6585000D01*
X6929945D01*
X6948323Y6592612D01*
X6962388Y6606677D01*
X6970000Y6625054D01*
Y6644946D01*
X6962388Y6663323D01*
X6948323Y6677388D01*
X6929945Y6685000D01*
D02*
G37*
G36*
X5987716Y6630100D02*
X5967284D01*
X5947548Y6624811D01*
X5929853Y6614595D01*
X5915405Y6600147D01*
X5905189Y6582452D01*
X5899900Y6562716D01*
Y6542284D01*
X5905189Y6522548D01*
X5915405Y6504853D01*
X5929853Y6490405D01*
X5947548Y6480188D01*
X5967284Y6474900D01*
X5987716D01*
X6007453Y6480188D01*
X6025147Y6490405D01*
X6039595Y6504853D01*
X6049812Y6522548D01*
X6055100Y6542284D01*
Y6562716D01*
X6049812Y6582452D01*
X6039595Y6600147D01*
X6025147Y6614595D01*
X6007453Y6624811D01*
X5987716Y6630100D01*
D02*
G37*
G36*
X8399946Y6460000D02*
X8380054D01*
X8361677Y6452388D01*
X8347612Y6438323D01*
X8340000Y6419946D01*
Y6400054D01*
X8347612Y6381677D01*
X8361677Y6367612D01*
X8380054Y6360000D01*
X8399946D01*
X8418323Y6367612D01*
X8432388Y6381677D01*
X8440000Y6400054D01*
Y6419946D01*
X8432388Y6438323D01*
X8418323Y6452388D01*
X8399946Y6460000D01*
D02*
G37*
G36*
X7177446Y6375000D02*
X7157554D01*
X7139177Y6367388D01*
X7125112Y6353323D01*
X7117500Y6334946D01*
Y6315054D01*
X7125112Y6296677D01*
X7139177Y6282612D01*
X7157554Y6275000D01*
X7177446D01*
X7195823Y6282612D01*
X7209888Y6296677D01*
X7217500Y6315054D01*
Y6334946D01*
X7209888Y6353323D01*
X7195823Y6367388D01*
X7177446Y6375000D01*
D02*
G37*
G36*
X8129946Y6262500D02*
X8110054D01*
X8091677Y6254888D01*
X8077612Y6240823D01*
X8070000Y6222446D01*
Y6202554D01*
X8077612Y6184177D01*
X8091677Y6170112D01*
X8110054Y6162500D01*
X8129946D01*
X8148323Y6170112D01*
X8162388Y6184177D01*
X8166359Y6193764D01*
X8180106D01*
X8185112Y6181677D01*
X8199177Y6167612D01*
X8217554Y6160000D01*
X8237446D01*
X8255823Y6167612D01*
X8269888Y6181677D01*
X8277500Y6200054D01*
Y6219946D01*
X8269888Y6238323D01*
X8255823Y6252388D01*
X8237446Y6260000D01*
X8217554D01*
X8199177Y6252388D01*
X8185112Y6238323D01*
X8181141Y6228736D01*
X8167394D01*
X8162388Y6240823D01*
X8148323Y6254888D01*
X8129946Y6262500D01*
D02*
G37*
G36*
X7692446Y6187870D02*
X7672554D01*
X7654177Y6180258D01*
X7640112Y6166193D01*
X7632500Y6147816D01*
Y6127925D01*
X7640112Y6109548D01*
X7654177Y6095482D01*
X7672554Y6087870D01*
X7692446D01*
X7710823Y6095482D01*
X7724888Y6109548D01*
X7732500Y6127925D01*
Y6147816D01*
X7724888Y6166193D01*
X7710823Y6180258D01*
X7692446Y6187870D01*
D02*
G37*
G36*
X7947446Y6152500D02*
X7927554D01*
X7909177Y6144888D01*
X7895112Y6130823D01*
X7887500Y6112446D01*
Y6092554D01*
X7895112Y6074177D01*
X7909177Y6060112D01*
X7927554Y6052500D01*
X7947446D01*
X7965823Y6060112D01*
X7979888Y6074177D01*
X7987500Y6092554D01*
Y6112446D01*
X7979888Y6130823D01*
X7965823Y6144888D01*
X7947446Y6152500D01*
D02*
G37*
%LPD*%
G36*
X7894821Y10064860D02*
X7898124Y10056250D01*
X7894821Y10047640D01*
X7888750Y10044942D01*
X7882679Y10047640D01*
X7879376Y10056250D01*
X7882679Y10064860D01*
X7888750Y10067558D01*
X7894821Y10064860D01*
D02*
G37*
D46*
X9104700Y8413055D02*
D03*
X8944699Y9273034D02*
D03*
D47*
X8479430Y6052147D02*
D03*
X8543039Y10685354D02*
D03*
X10511400Y6770479D02*
D03*
Y9869500D02*
D03*
D48*
X5918854Y7037825D02*
D03*
Y7355325D02*
D03*
X6426854D02*
D03*
Y7037825D02*
D03*
D49*
X6172854Y7355325D02*
D03*
X6274454Y6847325D02*
D03*
X6071254D02*
D03*
D50*
X8948100Y6169667D02*
D03*
X9828100D02*
D03*
X9828064Y10565333D02*
D03*
X8948064D02*
D03*
D51*
X9138100Y6869667D02*
D03*
X9388100D02*
D03*
X9638100D02*
D03*
X9638064Y9865333D02*
D03*
X9388064D02*
D03*
X9138064D02*
D03*
D52*
X5977500Y6552500D02*
D03*
X10377500Y10185000D02*
D03*
D53*
X6144237Y9918454D02*
D03*
Y9340455D02*
D03*
X6144200Y7937954D02*
D03*
Y8515954D02*
D03*
D54*
X10377500Y6167500D02*
D03*
Y10567500D02*
D03*
X5977500Y6167500D02*
D03*
X5977500Y10567500D02*
D03*
D55*
X10511400Y7773459D02*
D03*
Y7519459D02*
D03*
X10511399Y8899041D02*
D03*
Y9153041D02*
D03*
D56*
X10511400Y7265459D02*
D03*
X10511399Y9407041D02*
D03*
D57*
X6817500Y9945000D02*
D03*
X6617500D02*
D03*
X9205000Y9240000D02*
D03*
Y9440000D02*
D03*
X9412500Y9262500D02*
D03*
Y9462500D02*
D03*
X10425000Y9640000D02*
D03*
X10397500Y7030000D02*
D03*
X9550000Y10340000D02*
D03*
X9350000D02*
D03*
X10080000Y9822500D02*
D03*
Y9622500D02*
D03*
X9735000Y9550000D02*
D03*
Y9350000D02*
D03*
X8752500Y10067500D02*
D03*
X8552500D02*
D03*
X8630000Y9710000D02*
D03*
X8475000Y9885000D02*
D03*
X8095000Y9507500D02*
D03*
X8295000D02*
D03*
X9762500Y7352500D02*
D03*
Y7152500D02*
D03*
X9492500Y7385000D02*
D03*
Y7185000D02*
D03*
X8810000Y7542500D02*
D03*
X9232500Y7300000D02*
D03*
X9032500D02*
D03*
X6755000Y6472500D02*
D03*
Y6672500D02*
D03*
X6475000Y6282500D02*
D03*
X6675000D02*
D03*
X6480000Y6585000D02*
D03*
X6280000D02*
D03*
X7402500Y8392500D02*
D03*
X7202500D02*
D03*
X7240000Y8152500D02*
D03*
X7040000D02*
D03*
X6612500Y7685000D02*
D03*
Y7885000D02*
D03*
X6532500Y8815000D02*
D03*
Y9015000D02*
D03*
X5945000Y8095000D02*
D03*
Y8295000D02*
D03*
X5970000Y9520000D02*
D03*
Y9720000D02*
D03*
X7422500Y9940000D02*
D03*
X7622500D02*
D03*
X7002500Y9945000D02*
D03*
X7202500D02*
D03*
X7770000Y9705000D02*
D03*
X7970000D02*
D03*
X7762500Y9442500D02*
D03*
X7760000Y9247500D02*
D03*
Y9047500D02*
D03*
X7485000Y9175000D02*
D03*
X7285000D02*
D03*
X6887500Y9707500D02*
D03*
X7087500D02*
D03*
X7487500D02*
D03*
X7287500D02*
D03*
Y9442500D02*
D03*
X7487500D02*
D03*
X7087500D02*
D03*
X6887500D02*
D03*
X10000000Y7000000D02*
D03*
X10250000Y6500000D02*
D03*
X9750000D02*
D03*
X9500000Y6000000D02*
D03*
X9250000Y10500000D02*
D03*
Y6500000D02*
D03*
X6500000Y6000000D02*
D03*
X6000000Y10000000D02*
D03*
Y9000000D02*
D03*
D58*
X8700000Y10337500D02*
D03*
X8120000Y6212500D02*
D03*
X8227500Y6210000D02*
D03*
X7845000Y10012500D02*
D03*
X7932500D02*
D03*
X10172500Y8342500D02*
D03*
X10370000Y8805000D02*
D03*
X10407500Y7885000D02*
D03*
X10355000Y7967500D02*
D03*
X6722500Y9105000D02*
D03*
X6907500Y9190000D02*
D03*
X10437500Y8385000D02*
D03*
X10482500Y8300000D02*
D03*
X10390000Y8465000D02*
D03*
X10467500Y8050000D02*
D03*
X10580000Y7977500D02*
D03*
X10577500Y8717500D02*
D03*
X10212500Y8250000D02*
D03*
X10080000Y8337500D02*
D03*
X9982500Y8340000D02*
D03*
X6490000Y8457500D02*
D03*
X6487500Y7995000D02*
D03*
X6667500Y8400000D02*
D03*
X6662500Y8152500D02*
D03*
X10232500Y7477500D02*
D03*
X8613970Y8434727D02*
D03*
X8330365Y10015365D02*
D03*
X7932500Y10100000D02*
D03*
X7845000D02*
D03*
X6385000Y9869500D02*
D03*
X7602500Y10110000D02*
D03*
X7690000D02*
D03*
X7375000Y10085000D02*
D03*
X7462500D02*
D03*
X9462500Y7870000D02*
D03*
X9460000Y8762500D02*
D03*
X8202500Y10427500D02*
D03*
X8135000Y10000000D02*
D03*
X10092500Y7402500D02*
D03*
X10122500Y9310000D02*
D03*
X10127500Y8592500D02*
D03*
X10130921Y8122127D02*
D03*
X10337956Y8720457D02*
D03*
X10230000Y9230000D02*
D03*
X10132500Y7655000D02*
D03*
X10135000Y9055000D02*
D03*
X9472500Y9115000D02*
D03*
Y7582500D02*
D03*
X8592500Y7602500D02*
D03*
X8407500Y9027500D02*
D03*
X9477500Y7972500D02*
D03*
X9462500Y8857500D02*
D03*
X9722500Y8617500D02*
D03*
X9715000Y8035000D02*
D03*
X9827500Y8335000D02*
D03*
X9067500Y8102500D02*
D03*
Y8957500D02*
D03*
X8850000Y8205000D02*
D03*
X8832500Y8055000D02*
D03*
X8750000Y8655000D02*
D03*
X8097500Y8462500D02*
D03*
X8477500Y9230000D02*
D03*
X8512500Y8907500D02*
D03*
X8637500Y9242500D02*
D03*
X8582500Y7450000D02*
D03*
X8592500Y7240000D02*
D03*
X8280000Y8812500D02*
D03*
X8120000Y8210000D02*
D03*
X8635000Y7085000D02*
D03*
X8632500Y6905000D02*
D03*
X8390000Y6410000D02*
D03*
X6592500Y7137500D02*
D03*
X5932500Y6837500D02*
D03*
X6085000Y7457500D02*
D03*
X6835000Y7040000D02*
D03*
X6752500Y6872500D02*
D03*
X7682500Y5972500D02*
D03*
X6835000Y6815000D02*
D03*
X7477500Y5962500D02*
D03*
X8397500Y8605000D02*
D03*
X8140000Y8600000D02*
D03*
X8257500Y8682500D02*
D03*
X8455000Y6835000D02*
D03*
X6920000Y6635000D02*
D03*
X6502500Y9860000D02*
D03*
X6680000Y9702500D02*
D03*
X6675000Y9457500D02*
D03*
X6497500Y9400000D02*
D03*
X6385000Y9389500D02*
D03*
X7937500Y6102500D02*
D03*
X7312500Y7535000D02*
D03*
X8828918Y8290923D02*
D03*
X8492500Y7920000D02*
D03*
X8430000Y8232500D02*
D03*
X8780000Y7832500D02*
D03*
X8247500Y8027500D02*
D03*
X8457500Y6735000D02*
D03*
X7787500Y6010000D02*
D03*
X6907500Y6165000D02*
D03*
X7025000Y6297500D02*
D03*
X7170000Y7905000D02*
D03*
X6992500Y7822500D02*
D03*
X8447500Y7267500D02*
D03*
X7682500Y6307500D02*
D03*
X7835000Y6285000D02*
D03*
X7167500Y6325000D02*
D03*
X6995000Y6407500D02*
D03*
X7682500Y6137870D02*
D03*
X6370000Y8617500D02*
D03*
X7840000Y10725000D02*
D03*
X6640000Y10170000D02*
D03*
Y10267500D02*
D03*
X7610000Y10697500D02*
D03*
X7697500D02*
D03*
X7130000Y10767500D02*
D03*
X7042500D02*
D03*
X7217500D02*
D03*
X7805000Y10412500D02*
D03*
X7390000Y10515000D02*
D03*
Y10415000D02*
D03*
X6742500Y10767500D02*
D03*
X6830000D02*
D03*
X6640000Y10365000D02*
D03*
Y10452500D02*
D03*
X6377500Y10030000D02*
D03*
X6375000Y9230000D02*
D03*
X6367500Y7837500D02*
D03*
X6385000Y8467000D02*
D03*
Y7987000D02*
D03*
D59*
X9296026Y8335000D02*
X9827500D01*
X9067500Y8106474D02*
X9296026Y8335000D01*
X8697500Y9332500D02*
X8730000Y9300000D01*
Y9075000D02*
Y9300000D01*
X8682500Y9027500D02*
X8730000Y9075000D01*
X8407500Y9027500D02*
X8682500D01*
X7832500Y9272500D02*
X7892500Y9332500D01*
X8697500D01*
X7832500Y6942500D02*
Y9272500D01*
X10511400Y9407042D02*
Y9869500D01*
Y6770479D02*
Y7265459D01*
X9605000Y8650000D02*
X9637500Y8617500D01*
X9577500Y9582500D02*
X9605000Y9555000D01*
Y8650000D02*
Y9555000D01*
X9985000Y8342500D02*
Y9810000D01*
X9982500Y8340000D02*
X9985000Y8342500D01*
X8637500Y9165000D02*
Y9242500D01*
X8050000Y9117500D02*
X8590000D01*
X8060000Y7177500D02*
X8475000D01*
X8012500Y9080000D02*
X8050000Y9117500D01*
X8475000Y7177500D02*
X8537500Y7240000D01*
X8592500D01*
X8012500Y7225000D02*
Y9080000D01*
X8590000Y9117500D02*
X8637500Y9165000D01*
X8012500Y7225000D02*
X8060000Y7177500D01*
X7937500Y9200000D02*
X7967500Y9230000D01*
X8477500D01*
X7982500Y7085000D02*
X8635000D01*
X7937500Y7130000D02*
X7982500Y7085000D01*
X7937500Y7130000D02*
Y9200000D01*
X7832500Y6942500D02*
X7870000Y6905000D01*
X8632500D01*
X9067500Y8102500D02*
Y8106474D01*
X9602500Y7390000D02*
Y8010000D01*
Y7390000D02*
X9638100Y7354400D01*
X9602500Y8010000D02*
X9627500Y8035000D01*
X9715000D01*
X9638100Y6869667D02*
Y7354400D01*
X9929667Y9865333D02*
X9985000Y9810000D01*
X9638064Y9865333D02*
X9929667D01*
X9388064D02*
X9638064D01*
X9637500Y8617500D02*
X9722500D01*
X8862500Y9690000D02*
Y10145000D01*
X9107500Y8997500D02*
Y9445000D01*
X8862500Y9690000D02*
X9107500Y9445000D01*
X9159076Y9582500D02*
X9577500D01*
X9138064Y9603512D02*
X9159076Y9582500D01*
X9138064Y9603512D02*
Y9865333D01*
X9388064D02*
Y10124436D01*
X8887500Y10170000D02*
X9342500D01*
X9388064Y10124436D01*
X8862500Y10145000D02*
X8887500Y10170000D01*
X9067500Y8957500D02*
X9107500Y8997500D01*
X9067500Y8102500D02*
X9138100Y8031900D01*
Y6869667D02*
Y8031900D01*
Y6869667D02*
X9388100D01*
%TF.MD5,5db83f2e8c4cc8d71ae7b6e317063896*%
M02*
