%TF.GenerationSoftware,Altium Limited,Altium Designer,24.2.2 (26)*%
G04 Layer_Color=0*
%FSLAX45Y45*%
%MOMM*%
%TF.SameCoordinates,9421A899-AC1A-4384-8821-8213F9677E77*%
%TF.FilePolarity,Positive*%
%TF.FileFunction,Plated,1,8,PTH,Drill*%
%TF.Part,Single*%
G01*
G75*
%TA.AperFunction,ComponentDrill*%
%ADD119C,1.02000*%
%ADD120C,1.02000*%
%ADD121C,2.97320*%
%ADD122C,1.20000*%
%TA.AperFunction,OtherDrill,Pad Free-10 (103.775mm,61.675mm)*%
%ADD123C,3.20000*%
%TA.AperFunction,OtherDrill,Pad Free-10 (103.775mm,105.675mm)*%
%ADD124C,3.20000*%
%TA.AperFunction,OtherDrill,Pad Free-10 (59.775mm,61.675mm)*%
%ADD125C,3.20000*%
%TA.AperFunction,OtherDrill,Pad Free-10 (59.775mm,105.675mm)*%
%ADD126C,3.20000*%
%TA.AperFunction,ComponentDrill*%
%ADD127C,1.10000*%
%TA.AperFunction,ViaDrill,NotFilled*%
%ADD128C,0.40000*%
%ADD129C,0.30000*%
D119*
X9104700Y8413055D02*
D03*
X8944699Y9273034D02*
D03*
D120*
X8479430Y6052147D02*
D03*
X8543039Y10685354D02*
D03*
X10511400Y6770479D02*
D03*
Y9869500D02*
D03*
D121*
X8948100Y6169667D02*
D03*
X9828100D02*
D03*
X9828064Y10565333D02*
D03*
X8948064D02*
D03*
D122*
X9138100Y6869667D02*
D03*
X9388100D02*
D03*
X9638100D02*
D03*
X9638064Y9865333D02*
D03*
X9388064D02*
D03*
X9138064D02*
D03*
D123*
X10377500Y6167500D02*
D03*
D124*
Y10567500D02*
D03*
D125*
X5977500Y6167500D02*
D03*
D126*
X5977500Y10567500D02*
D03*
D127*
X10511400Y7773459D02*
D03*
Y7519459D02*
D03*
Y7265459D02*
D03*
X10511399Y8899041D02*
D03*
Y9153041D02*
D03*
Y9407041D02*
D03*
D128*
X6817500Y9945000D02*
D03*
X6617500D02*
D03*
X9205000Y9240000D02*
D03*
Y9440000D02*
D03*
X9412500Y9262500D02*
D03*
Y9462500D02*
D03*
X10425000Y9640000D02*
D03*
X10397500Y7030000D02*
D03*
X9550000Y10340000D02*
D03*
X9350000D02*
D03*
X10080000Y9822500D02*
D03*
Y9622500D02*
D03*
X9735000Y9550000D02*
D03*
Y9350000D02*
D03*
X8752500Y10067500D02*
D03*
X8552500D02*
D03*
X8630000Y9710000D02*
D03*
X8475000Y9885000D02*
D03*
X8095000Y9507500D02*
D03*
X8295000D02*
D03*
X9762500Y7352500D02*
D03*
Y7152500D02*
D03*
X9492500Y7385000D02*
D03*
Y7185000D02*
D03*
X8810000Y7542500D02*
D03*
X9232500Y7300000D02*
D03*
X9032500D02*
D03*
X6755000Y6472500D02*
D03*
Y6672500D02*
D03*
X6475000Y6282500D02*
D03*
X6675000D02*
D03*
X6480000Y6585000D02*
D03*
X6280000D02*
D03*
X7402500Y8392500D02*
D03*
X7202500D02*
D03*
X7240000Y8152500D02*
D03*
X7040000D02*
D03*
X6612500Y7685000D02*
D03*
Y7885000D02*
D03*
X6532500Y8815000D02*
D03*
Y9015000D02*
D03*
X5945000Y8095000D02*
D03*
Y8295000D02*
D03*
X5970000Y9520000D02*
D03*
Y9720000D02*
D03*
X7422500Y9940000D02*
D03*
X7622500D02*
D03*
X7002500Y9945000D02*
D03*
X7202500D02*
D03*
X7770000Y9705000D02*
D03*
X7970000D02*
D03*
X7762500Y9442500D02*
D03*
X7760000Y9247500D02*
D03*
Y9047500D02*
D03*
X7485000Y9175000D02*
D03*
X7285000D02*
D03*
X6887500Y9707500D02*
D03*
X7087500D02*
D03*
X7487500D02*
D03*
X7287500D02*
D03*
Y9442500D02*
D03*
X7487500D02*
D03*
X7087500D02*
D03*
X6887500D02*
D03*
X10000000Y7000000D02*
D03*
X10250000Y6500000D02*
D03*
X9750000D02*
D03*
X9500000Y6000000D02*
D03*
X9250000Y10500000D02*
D03*
Y6500000D02*
D03*
X6500000Y6000000D02*
D03*
X6000000Y10000000D02*
D03*
Y9000000D02*
D03*
D129*
X8700000Y10337500D02*
D03*
X8120000Y6212500D02*
D03*
X8227500Y6210000D02*
D03*
X7845000Y10012500D02*
D03*
X7932500D02*
D03*
X10172500Y8342500D02*
D03*
X10370000Y8805000D02*
D03*
X10407500Y7885000D02*
D03*
X10355000Y7967500D02*
D03*
X6722500Y9105000D02*
D03*
X6907500Y9190000D02*
D03*
X10437500Y8385000D02*
D03*
X10482500Y8300000D02*
D03*
X10390000Y8465000D02*
D03*
X10467500Y8050000D02*
D03*
X10580000Y7977500D02*
D03*
X10577500Y8717500D02*
D03*
X10212500Y8250000D02*
D03*
X10080000Y8337500D02*
D03*
X9982500Y8340000D02*
D03*
X6490000Y8457500D02*
D03*
X6487500Y7995000D02*
D03*
X6667500Y8400000D02*
D03*
X6662500Y8152500D02*
D03*
X10232500Y7477500D02*
D03*
X8613970Y8434727D02*
D03*
X8330365Y10015365D02*
D03*
X7932500Y10100000D02*
D03*
X7845000D02*
D03*
X6385000Y9869500D02*
D03*
X7602500Y10110000D02*
D03*
X7690000D02*
D03*
X7375000Y10085000D02*
D03*
X7462500D02*
D03*
X9462500Y7870000D02*
D03*
X9460000Y8762500D02*
D03*
X8202500Y10427500D02*
D03*
X8135000Y10000000D02*
D03*
X10092500Y7402500D02*
D03*
X10122500Y9310000D02*
D03*
X10127500Y8592500D02*
D03*
X10130921Y8122127D02*
D03*
X10337956Y8720457D02*
D03*
X10230000Y9230000D02*
D03*
X10132500Y7655000D02*
D03*
X10135000Y9055000D02*
D03*
X9472500Y9115000D02*
D03*
Y7582500D02*
D03*
X8592500Y7602500D02*
D03*
X8407500Y9027500D02*
D03*
X9477500Y7972500D02*
D03*
X9462500Y8857500D02*
D03*
X9722500Y8617500D02*
D03*
X9715000Y8035000D02*
D03*
X9827500Y8335000D02*
D03*
X9067500Y8102500D02*
D03*
Y8957500D02*
D03*
X8850000Y8205000D02*
D03*
X8832500Y8055000D02*
D03*
X8750000Y8655000D02*
D03*
X8097500Y8462500D02*
D03*
X8477500Y9230000D02*
D03*
X8512500Y8907500D02*
D03*
X8637500Y9242500D02*
D03*
X8582500Y7450000D02*
D03*
X8592500Y7240000D02*
D03*
X8280000Y8812500D02*
D03*
X8120000Y8210000D02*
D03*
X8635000Y7085000D02*
D03*
X8632500Y6905000D02*
D03*
X8390000Y6410000D02*
D03*
X6592500Y7137500D02*
D03*
X5932500Y6837500D02*
D03*
X6085000Y7457500D02*
D03*
X6835000Y7040000D02*
D03*
X6752500Y6872500D02*
D03*
X7682500Y5972500D02*
D03*
X6835000Y6815000D02*
D03*
X7477500Y5962500D02*
D03*
X8397500Y8605000D02*
D03*
X8140000Y8600000D02*
D03*
X8257500Y8682500D02*
D03*
X8455000Y6835000D02*
D03*
X6920000Y6635000D02*
D03*
X6502500Y9860000D02*
D03*
X6680000Y9702500D02*
D03*
X6675000Y9457500D02*
D03*
X6497500Y9400000D02*
D03*
X6385000Y9389500D02*
D03*
X7937500Y6102500D02*
D03*
X7312500Y7535000D02*
D03*
X8828918Y8290923D02*
D03*
X8492500Y7920000D02*
D03*
X8430000Y8232500D02*
D03*
X8780000Y7832500D02*
D03*
X8247500Y8027500D02*
D03*
X8457500Y6735000D02*
D03*
X7787500Y6010000D02*
D03*
X6907500Y6165000D02*
D03*
X7025000Y6297500D02*
D03*
X7170000Y7905000D02*
D03*
X6992500Y7822500D02*
D03*
X8447500Y7267500D02*
D03*
X7682500Y6307500D02*
D03*
X7835000Y6285000D02*
D03*
X7167500Y6325000D02*
D03*
X6995000Y6407500D02*
D03*
X7682500Y6137870D02*
D03*
X6370000Y8617500D02*
D03*
X7840000Y10725000D02*
D03*
X6640000Y10170000D02*
D03*
Y10267500D02*
D03*
X7610000Y10697500D02*
D03*
X7697500D02*
D03*
X7130000Y10767500D02*
D03*
X7042500D02*
D03*
X7217500D02*
D03*
X7805000Y10412500D02*
D03*
X7390000Y10515000D02*
D03*
Y10415000D02*
D03*
X6742500Y10767500D02*
D03*
X6830000D02*
D03*
X6640000Y10365000D02*
D03*
Y10452500D02*
D03*
X6377500Y10030000D02*
D03*
X6375000Y9230000D02*
D03*
X6367500Y7837500D02*
D03*
X6385000Y8467000D02*
D03*
Y7987000D02*
D03*
%TF.MD5,f92c3c410688fb1131d635168cbf2464*%
M02*
